<svg xmlns="http://www.w3.org/2000/svg" xmlns:xlink="http://www.w3.org/1999/xlink" width="800" zoomAndPan="magnify" viewBox="0 0 600 599.999999" height="800" preserveAspectRatio="xMidYMid meet" version="1.0"><defs><g/></defs><g fill="#000000" fill-opacity="1"><g transform="translate(3.201071, 337.525443)"><g><path d="M 71.9375 0 L 50.4375 0 L 29.6875 -43 L 22.046875 0 L 0.546875 0 L 14.1875 -76.953125 L 35.578125 -76.953125 L 56.4375 -33.40625 L 64.078125 -76.953125 L 85.46875 -76.953125 Z M 71.9375 0 "/></g></g></g><g fill="#004aad" fill-opacity="1"><g transform="translate(86.6983, 337.525443)"><g><path d="M 51.515625 -12.546875 L 24.234375 -12.546875 L 17.90625 0 L -4.578125 0 L 37 -76.953125 L 61.671875 -76.953125 L 76.078125 0 L 53.484375 0 Z M 49.015625 -28.8125 L 45.1875 -53.8125 L 32.53125 -28.8125 Z M 49.015625 -28.8125 "/></g></g></g><g fill="#004aad" fill-opacity="1"><g transform="translate(169.109075, 337.525443)"><g><path d="M 35.578125 -76.953125 L 22.046875 0 L 0.546875 0 L 14.1875 -76.953125 Z M 35.578125 -76.953125 "/></g></g></g><g fill="#000000" fill-opacity="1"><g transform="translate(202.713335, 337.525443)"><g><path d="M 47.921875 -76.953125 C 55.992188 -76.953125 62.140625 -75.148438 66.359375 -71.546875 C 70.585938 -67.953125 72.703125 -63.171875 72.703125 -57.203125 C 72.703125 -55.378906 72.554688 -53.738281 72.265625 -52.28125 C 71.390625 -47.039062 69.164062 -42.4375 65.59375 -38.46875 C 62.03125 -34.507812 57.300781 -31.691406 51.40625 -30.015625 L 63.421875 0 L 39.625 0 L 29.359375 -28.375 L 27.078125 -28.375 L 22.046875 0 L 0.546875 0 L 14.1875 -76.953125 Z M 29.6875 -43 L 40.28125 -43 C 45.957031 -43 49.304688 -45.691406 50.328125 -51.078125 C 50.472656 -51.953125 50.546875 -52.570312 50.546875 -52.9375 C 50.546875 -54.90625 49.90625 -56.429688 48.625 -57.515625 C 47.351562 -58.609375 45.476562 -59.15625 43 -59.15625 L 32.421875 -59.15625 Z M 29.6875 -43 "/></g></g></g><g fill="#000000" fill-opacity="1"><g transform="translate(274.863701, 337.525443)"><g><path d="M 37.765625 0.765625 C 31.285156 0.765625 25.570312 -0.578125 20.625 -3.265625 C 15.675781 -5.960938 11.851562 -9.75 9.15625 -14.625 C 6.46875 -19.5 5.125 -25.101562 5.125 -31.4375 C 5.125 -40.53125 7.035156 -48.625 10.859375 -55.71875 C 14.679688 -62.8125 20.03125 -68.320312 26.90625 -72.25 C 33.78125 -76.1875 41.660156 -78.15625 50.546875 -78.15625 C 57.160156 -78.15625 62.957031 -76.828125 67.9375 -74.171875 C 72.925781 -71.515625 76.765625 -67.765625 79.453125 -62.921875 C 82.148438 -58.085938 83.5 -52.503906 83.5 -46.171875 C 83.5 -37.148438 81.570312 -29.070312 77.71875 -21.9375 C 73.863281 -14.8125 68.476562 -9.242188 61.5625 -5.234375 C 54.644531 -1.234375 46.710938 0.765625 37.765625 0.765625 Z M 41.046875 -19.109375 C 45.335938 -19.109375 49.101562 -20.234375 52.34375 -22.484375 C 55.582031 -24.742188 58.054688 -27.742188 59.765625 -31.484375 C 61.472656 -35.234375 62.328125 -39.289062 62.328125 -43.65625 C 62.328125 -48.320312 61.070312 -51.945312 58.5625 -54.53125 C 56.050781 -57.113281 52.46875 -58.40625 47.8125 -58.40625 C 43.519531 -58.40625 39.734375 -57.289062 36.453125 -55.0625 C 33.179688 -52.84375 30.671875 -49.878906 28.921875 -46.171875 C 27.179688 -42.460938 26.3125 -38.390625 26.3125 -33.953125 C 26.3125 -29.367188 27.582031 -25.75 30.125 -23.09375 C 32.675781 -20.4375 36.316406 -19.109375 41.046875 -19.109375 Z M 41.046875 -19.109375 "/></g></g></g><g fill="#000000" fill-opacity="1"><g transform="translate(360.767382, 337.525443)"><g><path d="M 72.8125 -56.984375 C 72.007812 -52.472656 70.132812 -48.707031 67.1875 -45.6875 C 64.238281 -42.664062 60.726562 -40.609375 56.65625 -39.515625 C 60.363281 -38.640625 63.253906 -36.851562 65.328125 -34.15625 C 67.398438 -31.46875 68.4375 -28.269531 68.4375 -24.5625 C 68.4375 -23.394531 68.328125 -22.191406 68.109375 -20.953125 C 67.015625 -14.410156 63.882812 -9.28125 58.71875 -5.5625 C 53.550781 -1.851562 46.859375 0 38.640625 0 L 0.546875 0 L 14.1875 -76.953125 L 51.078125 -76.953125 C 58.066406 -76.953125 63.488281 -75.550781 67.34375 -72.75 C 71.207031 -69.945312 73.140625 -65.960938 73.140625 -60.796875 C 73.140625 -59.554688 73.03125 -58.285156 72.8125 -56.984375 Z M 50.21875 -53.046875 C 50.289062 -53.410156 50.328125 -53.957031 50.328125 -54.6875 C 50.328125 -58.175781 48.03125 -59.921875 43.4375 -59.921875 L 32.640625 -59.921875 L 30.234375 -46.28125 L 41.046875 -46.28125 C 46.359375 -46.28125 49.414062 -48.535156 50.21875 -53.046875 Z M 46.828125 -24.015625 C 46.898438 -24.378906 46.9375 -24.890625 46.9375 -25.546875 C 46.9375 -27.359375 46.332031 -28.753906 45.125 -29.734375 C 43.925781 -30.722656 42.164062 -31.21875 39.84375 -31.21875 L 27.5 -31.21875 L 25.109375 -17.140625 L 37.546875 -17.140625 C 42.859375 -17.140625 45.953125 -19.429688 46.828125 -24.015625 Z M 46.828125 -24.015625 "/></g></g></g><g fill="#000000" fill-opacity="1"><g transform="translate(434.009279, 337.525443)"><g><path d="M 32.640625 -60.03125 L 30.453125 -47.265625 L 55.015625 -47.265625 L 52.0625 -31 L 27.5 -31 L 25 -17.03125 L 52.828125 -17.03125 L 49.890625 0 L 0.546875 0 L 14.1875 -76.953125 L 63.421875 -76.953125 L 60.46875 -60.03125 Z M 32.640625 -60.03125 "/></g></g></g><g fill="#000000" fill-opacity="1"><g transform="translate(493.825291, 337.525443)"><g><path d="M 25 -16.265625 L 48.90625 -16.265625 L 45.953125 0 L 0.546875 0 L 14.1875 -76.953125 L 35.578125 -76.953125 Z M 25 -16.265625 "/></g></g></g><g fill="#000000" fill-opacity="1"><g transform="translate(547.419575, 337.525443)"><g><path d="M 25 -16.265625 L 48.90625 -16.265625 L 45.953125 0 L 0.546875 0 L 14.1875 -76.953125 L 35.578125 -76.953125 Z M 25 -16.265625 "/></g></g></g></svg>